<mxfile host="app.diagrams.net" agent="Mozilla/5.0 (Windows NT 10.0; Win64; x64) AppleWebKit/537.36 (KHTML, like Gecko) Chrome/127.0.0.0 Safari/537.36" version="24.7.5">
  <diagram name="Page-1" id="xjJPVmZaullVreYkLp-5">
    <mxGraphModel dx="838" dy="867" grid="1" gridSize="10" guides="1" tooltips="1" connect="1" arrows="1" fold="1" page="1" pageScale="1" pageWidth="850" pageHeight="1100" math="0" shadow="0">
      <root>
        <mxCell id="0" />
        <mxCell id="1" parent="0" />
        <mxCell id="RtvBwUcDOF_X8vf2SPrT-35" style="edgeStyle=orthogonalEdgeStyle;rounded=0;orthogonalLoop=1;jettySize=auto;html=1;" parent="1" source="RtvBwUcDOF_X8vf2SPrT-1" target="RtvBwUcDOF_X8vf2SPrT-13" edge="1">
          <mxGeometry relative="1" as="geometry" />
        </mxCell>
        <mxCell id="RtvBwUcDOF_X8vf2SPrT-1" value="&lt;p style=&quot;line-height:150%&quot; class=&quot;MsoNormal&quot;&gt;School Year and Semester&lt;/p&gt;" style="rounded=0;whiteSpace=wrap;html=1;" parent="1" vertex="1">
          <mxGeometry x="150" y="40" width="130" height="60" as="geometry" />
        </mxCell>
        <mxCell id="RtvBwUcDOF_X8vf2SPrT-3" value="&lt;p style=&quot;line-height:150%&quot; class=&quot;MsoNormal&quot;&gt;Subjects and their credits&lt;/p&gt;" style="rounded=0;whiteSpace=wrap;html=1;" parent="1" vertex="1">
          <mxGeometry x="145" y="480" width="130" height="110" as="geometry" />
        </mxCell>
        <mxCell id="RtvBwUcDOF_X8vf2SPrT-6" value="&lt;p style=&quot;line-height:150%&quot; class=&quot;MsoNormal&quot;&gt;Students Data&lt;b&gt;&lt;/b&gt;&lt;/p&gt;" style="rounded=0;whiteSpace=wrap;html=1;" parent="1" vertex="1">
          <mxGeometry x="145" y="600" width="130" height="60" as="geometry" />
        </mxCell>
        <mxCell id="RtvBwUcDOF_X8vf2SPrT-7" value="&lt;p style=&quot;line-height:150%&quot; class=&quot;MsoNormal&quot;&gt;Faculties Data&lt;b&gt;&lt;/b&gt;&lt;/p&gt;" style="rounded=0;whiteSpace=wrap;html=1;" parent="1" vertex="1">
          <mxGeometry x="145" y="415" width="130" height="60" as="geometry" />
        </mxCell>
        <mxCell id="RtvBwUcDOF_X8vf2SPrT-52" style="edgeStyle=orthogonalEdgeStyle;rounded=0;orthogonalLoop=1;jettySize=auto;html=1;entryX=0;entryY=0.25;entryDx=0;entryDy=0;" parent="1" source="RtvBwUcDOF_X8vf2SPrT-10" target="RtvBwUcDOF_X8vf2SPrT-49" edge="1">
          <mxGeometry relative="1" as="geometry" />
        </mxCell>
        <mxCell id="RtvBwUcDOF_X8vf2SPrT-10" value="&lt;p style=&quot;line-height:150%&quot; class=&quot;MsoNormal&quot;&gt;Department&lt;br&gt;&lt;/p&gt;" style="rounded=0;whiteSpace=wrap;html=1;" parent="1" vertex="1">
          <mxGeometry x="140" y="193" width="130" height="60" as="geometry" />
        </mxCell>
        <mxCell id="RtvBwUcDOF_X8vf2SPrT-53" style="edgeStyle=orthogonalEdgeStyle;rounded=0;orthogonalLoop=1;jettySize=auto;html=1;entryX=0;entryY=0.769;entryDx=0;entryDy=0;entryPerimeter=0;" parent="1" source="RtvBwUcDOF_X8vf2SPrT-11" target="RtvBwUcDOF_X8vf2SPrT-49" edge="1">
          <mxGeometry relative="1" as="geometry" />
        </mxCell>
        <mxCell id="RtvBwUcDOF_X8vf2SPrT-11" value="&lt;p style=&quot;line-height:150%&quot; class=&quot;MsoNormal&quot;&gt;Program/Course&lt;b&gt;&lt;/b&gt;&lt;/p&gt;" style="rounded=0;whiteSpace=wrap;html=1;" parent="1" vertex="1">
          <mxGeometry x="140" y="260" width="130" height="60" as="geometry" />
        </mxCell>
        <mxCell id="RtvBwUcDOF_X8vf2SPrT-12" value="&lt;p style=&quot;line-height:150%&quot; class=&quot;MsoNormal&quot;&gt;Year Level and Sections&lt;/p&gt;" style="rounded=0;whiteSpace=wrap;html=1;" parent="1" vertex="1">
          <mxGeometry x="145" y="670" width="130" height="60" as="geometry" />
        </mxCell>
        <mxCell id="RtvBwUcDOF_X8vf2SPrT-36" style="edgeStyle=orthogonalEdgeStyle;rounded=0;orthogonalLoop=1;jettySize=auto;html=1;entryX=0;entryY=0.5;entryDx=0;entryDy=0;" parent="1" source="RtvBwUcDOF_X8vf2SPrT-13" target="RtvBwUcDOF_X8vf2SPrT-28" edge="1">
          <mxGeometry relative="1" as="geometry" />
        </mxCell>
        <mxCell id="RtvBwUcDOF_X8vf2SPrT-13" value="&lt;p style=&quot;line-height: 150%;&quot; align=&quot;center&quot; class=&quot;MsoNormal&quot;&gt;Manage&lt;br/&gt;School Year and Semester&lt;/p&gt;" style="rounded=0;whiteSpace=wrap;html=1;" parent="1" vertex="1">
          <mxGeometry x="370" y="40" width="130" height="60" as="geometry" />
        </mxCell>
        <mxCell id="RtvBwUcDOF_X8vf2SPrT-96" style="edgeStyle=orthogonalEdgeStyle;rounded=0;orthogonalLoop=1;jettySize=auto;html=1;entryX=0;entryY=0.5;entryDx=0;entryDy=0;" parent="1" source="RtvBwUcDOF_X8vf2SPrT-17" target="RtvBwUcDOF_X8vf2SPrT-92" edge="1">
          <mxGeometry relative="1" as="geometry" />
        </mxCell>
        <mxCell id="RtvBwUcDOF_X8vf2SPrT-98" style="edgeStyle=orthogonalEdgeStyle;rounded=0;orthogonalLoop=1;jettySize=auto;html=1;exitX=0.992;exitY=0.841;exitDx=0;exitDy=0;entryX=0;entryY=0.5;entryDx=0;entryDy=0;exitPerimeter=0;" parent="1" source="RtvBwUcDOF_X8vf2SPrT-17" target="RtvBwUcDOF_X8vf2SPrT-95" edge="1">
          <mxGeometry relative="1" as="geometry" />
        </mxCell>
        <mxCell id="RtvBwUcDOF_X8vf2SPrT-17" value="&lt;p style=&quot;line-height: 150%;&quot; align=&quot;center&quot; class=&quot;MsoNormal&quot;&gt;Evaluate Student and&amp;nbsp;&lt;span style=&quot;background-color: initial;&quot;&gt;Enroll&lt;/span&gt;&lt;/p&gt;" style="rounded=0;whiteSpace=wrap;html=1;" parent="1" vertex="1">
          <mxGeometry x="375" y="550" width="130" height="190" as="geometry" />
        </mxCell>
        <mxCell id="RtvBwUcDOF_X8vf2SPrT-28" value="&lt;p style=&quot;line-height:150%&quot; class=&quot;MsoNormal&quot;&gt;&lt;span style=&quot;line-height: 107%;&quot;&gt;&lt;font style=&quot;font-size: 12px;&quot;&gt;List&lt;br&gt;of school year and semester&lt;/font&gt;&lt;/span&gt;&lt;br&gt;&lt;/p&gt;" style="rounded=0;whiteSpace=wrap;html=1;" parent="1" vertex="1">
          <mxGeometry x="575" y="40" width="130" height="60" as="geometry" />
        </mxCell>
        <mxCell id="RtvBwUcDOF_X8vf2SPrT-29" value="&lt;p style=&quot;line-height:150%&quot; class=&quot;MsoNormal&quot;&gt;List of students inside the&lt;br/&gt;Class/Subject&lt;/p&gt;" style="rounded=0;whiteSpace=wrap;html=1;" parent="1" vertex="1">
          <mxGeometry x="575" y="550" width="150" height="60" as="geometry" />
        </mxCell>
        <mxCell id="RtvBwUcDOF_X8vf2SPrT-54" style="edgeStyle=orthogonalEdgeStyle;rounded=0;orthogonalLoop=1;jettySize=auto;html=1;entryX=0;entryY=0.5;entryDx=0;entryDy=0;" parent="1" source="RtvBwUcDOF_X8vf2SPrT-49" target="RtvBwUcDOF_X8vf2SPrT-50" edge="1">
          <mxGeometry relative="1" as="geometry" />
        </mxCell>
        <mxCell id="RtvBwUcDOF_X8vf2SPrT-49" value="&lt;p style=&quot;line-height: 150%;&quot; align=&quot;center&quot; class=&quot;MsoNormal&quot;&gt;Manange Academic Information&lt;/p&gt;" style="rounded=0;whiteSpace=wrap;html=1;" parent="1" vertex="1">
          <mxGeometry x="370" y="190" width="130" height="130" as="geometry" />
        </mxCell>
        <mxCell id="RtvBwUcDOF_X8vf2SPrT-50" value="&lt;p style=&quot;line-height:150%&quot; class=&quot;MsoNormal&quot;&gt;&lt;span style=&quot;line-height: 107%;&quot;&gt;&lt;font style=&quot;font-size: 12px;&quot;&gt;List&lt;br&gt;of Departments with their Programs/Courses&lt;/font&gt;&lt;/span&gt;&lt;br&gt;&lt;/p&gt;" style="rounded=0;whiteSpace=wrap;html=1;" parent="1" vertex="1">
          <mxGeometry x="575" y="220" width="130" height="70" as="geometry" />
        </mxCell>
        <mxCell id="RtvBwUcDOF_X8vf2SPrT-75" style="edgeStyle=orthogonalEdgeStyle;rounded=0;orthogonalLoop=1;jettySize=auto;html=1;entryX=0.013;entryY=0.42;entryDx=0;entryDy=0;entryPerimeter=0;" parent="1" source="RtvBwUcDOF_X8vf2SPrT-6" target="RtvBwUcDOF_X8vf2SPrT-17" edge="1">
          <mxGeometry relative="1" as="geometry">
            <Array as="points" />
          </mxGeometry>
        </mxCell>
        <mxCell id="RtvBwUcDOF_X8vf2SPrT-79" style="edgeStyle=orthogonalEdgeStyle;rounded=0;orthogonalLoop=1;jettySize=auto;html=1;entryX=-0.014;entryY=0.057;entryDx=0;entryDy=0;entryPerimeter=0;" parent="1" source="RtvBwUcDOF_X8vf2SPrT-3" target="RtvBwUcDOF_X8vf2SPrT-17" edge="1">
          <mxGeometry relative="1" as="geometry">
            <Array as="points">
              <mxPoint x="320" y="561" />
              <mxPoint x="373" y="560" />
            </Array>
          </mxGeometry>
        </mxCell>
        <mxCell id="RtvBwUcDOF_X8vf2SPrT-106" style="edgeStyle=orthogonalEdgeStyle;rounded=0;orthogonalLoop=1;jettySize=auto;html=1;exitX=1;exitY=0.911;exitDx=0;exitDy=0;entryX=0;entryY=0.652;entryDx=0;entryDy=0;entryPerimeter=0;exitPerimeter=0;" parent="1" source="RtvBwUcDOF_X8vf2SPrT-80" target="RtvBwUcDOF_X8vf2SPrT-103" edge="1">
          <mxGeometry relative="1" as="geometry">
            <Array as="points" />
          </mxGeometry>
        </mxCell>
        <mxCell id="RtvBwUcDOF_X8vf2SPrT-80" value="&lt;p style=&quot;line-height: 150%;&quot; align=&quot;center&quot; class=&quot;MsoNormal&quot;&gt;Assign Faculty to a class/subject&lt;/p&gt;" style="rounded=0;whiteSpace=wrap;html=1;" parent="1" vertex="1">
          <mxGeometry x="375" y="350" width="130" height="190" as="geometry" />
        </mxCell>
        <mxCell id="RtvBwUcDOF_X8vf2SPrT-84" value="&lt;p style=&quot;line-height:150%&quot; class=&quot;MsoNormal&quot;&gt;List of students inside the&lt;br/&gt;Class/Subject&lt;/p&gt;" style="rounded=0;whiteSpace=wrap;html=1;" parent="1" vertex="1">
          <mxGeometry x="575" y="390" width="150" height="60" as="geometry" />
        </mxCell>
        <mxCell id="RtvBwUcDOF_X8vf2SPrT-85" style="edgeStyle=orthogonalEdgeStyle;rounded=0;orthogonalLoop=1;jettySize=auto;html=1;entryX=0;entryY=0.5;entryDx=0;entryDy=0;" parent="1" source="RtvBwUcDOF_X8vf2SPrT-7" target="RtvBwUcDOF_X8vf2SPrT-80" edge="1">
          <mxGeometry relative="1" as="geometry">
            <mxPoint x="330" y="480" as="targetPoint" />
            <Array as="points">
              <mxPoint x="350" y="445" />
              <mxPoint x="350" y="445" />
            </Array>
          </mxGeometry>
        </mxCell>
        <mxCell id="RtvBwUcDOF_X8vf2SPrT-88" value="&lt;p style=&quot;line-height:150%&quot; class=&quot;MsoNormal&quot;&gt;Rooms&lt;b&gt;&lt;/b&gt;&lt;/p&gt;" style="rounded=0;whiteSpace=wrap;html=1;" parent="1" vertex="1">
          <mxGeometry x="145" y="350" width="130" height="60" as="geometry" />
        </mxCell>
        <mxCell id="RtvBwUcDOF_X8vf2SPrT-89" style="edgeStyle=orthogonalEdgeStyle;rounded=0;orthogonalLoop=1;jettySize=auto;html=1;" parent="1" source="RtvBwUcDOF_X8vf2SPrT-88" edge="1">
          <mxGeometry relative="1" as="geometry">
            <mxPoint x="374" y="380" as="targetPoint" />
            <Array as="points">
              <mxPoint x="374" y="380" />
            </Array>
          </mxGeometry>
        </mxCell>
        <mxCell id="RtvBwUcDOF_X8vf2SPrT-90" style="edgeStyle=orthogonalEdgeStyle;rounded=0;orthogonalLoop=1;jettySize=auto;html=1;entryX=0.002;entryY=0.585;entryDx=0;entryDy=0;entryPerimeter=0;" parent="1" source="RtvBwUcDOF_X8vf2SPrT-80" target="RtvBwUcDOF_X8vf2SPrT-84" edge="1">
          <mxGeometry relative="1" as="geometry">
            <Array as="points">
              <mxPoint x="520" y="425" />
              <mxPoint x="520" y="425" />
            </Array>
          </mxGeometry>
        </mxCell>
        <mxCell id="RtvBwUcDOF_X8vf2SPrT-92" value="&lt;p style=&quot;line-height:150%&quot; class=&quot;MsoNormal&quot;&gt;Students&#39; list of&lt;br&gt;Classes/Subjects&lt;/p&gt;" style="rounded=0;whiteSpace=wrap;html=1;" parent="1" vertex="1">
          <mxGeometry x="575" y="620" width="150" height="50" as="geometry" />
        </mxCell>
        <mxCell id="RtvBwUcDOF_X8vf2SPrT-95" value="&lt;p style=&quot;line-height:150%&quot; class=&quot;MsoNormal&quot;&gt;List of students inside the&lt;br/&gt;Class/Subject&lt;/p&gt;" style="rounded=0;whiteSpace=wrap;html=1;" parent="1" vertex="1">
          <mxGeometry x="575" y="680" width="150" height="60" as="geometry" />
        </mxCell>
        <mxCell id="RtvBwUcDOF_X8vf2SPrT-99" style="edgeStyle=orthogonalEdgeStyle;rounded=0;orthogonalLoop=1;jettySize=auto;html=1;entryX=0.001;entryY=0.789;entryDx=0;entryDy=0;entryPerimeter=0;" parent="1" source="RtvBwUcDOF_X8vf2SPrT-12" target="RtvBwUcDOF_X8vf2SPrT-17" edge="1">
          <mxGeometry relative="1" as="geometry" />
        </mxCell>
        <mxCell id="RtvBwUcDOF_X8vf2SPrT-101" style="edgeStyle=orthogonalEdgeStyle;rounded=0;orthogonalLoop=1;jettySize=auto;html=1;entryX=-0.001;entryY=0.329;entryDx=0;entryDy=0;entryPerimeter=0;" parent="1" source="RtvBwUcDOF_X8vf2SPrT-17" target="RtvBwUcDOF_X8vf2SPrT-29" edge="1">
          <mxGeometry relative="1" as="geometry">
            <Array as="points">
              <mxPoint x="540" y="570" />
            </Array>
          </mxGeometry>
        </mxCell>
        <mxCell id="RtvBwUcDOF_X8vf2SPrT-102" style="edgeStyle=orthogonalEdgeStyle;rounded=0;orthogonalLoop=1;jettySize=auto;html=1;entryX=0.01;entryY=0.836;entryDx=0;entryDy=0;entryPerimeter=0;" parent="1" source="RtvBwUcDOF_X8vf2SPrT-3" target="RtvBwUcDOF_X8vf2SPrT-80" edge="1">
          <mxGeometry relative="1" as="geometry">
            <Array as="points">
              <mxPoint x="300" y="509" />
              <mxPoint x="300" y="509" />
            </Array>
          </mxGeometry>
        </mxCell>
        <mxCell id="RtvBwUcDOF_X8vf2SPrT-103" value="&lt;p style=&quot;line-height:150%&quot; class=&quot;MsoNormal&quot;&gt;Faculty list of&lt;br&gt;Classes/Subjects&lt;/p&gt;" style="rounded=0;whiteSpace=wrap;html=1;" parent="1" vertex="1">
          <mxGeometry x="575" y="490" width="150" height="50" as="geometry" />
        </mxCell>
      </root>
    </mxGraphModel>
  </diagram>
</mxfile>
